<svg viewBox="0 0 32 32" fill="currentColor" xmlns="http://www.w3.org/2000/svg">
<path fill-rule="evenodd" clip-rule="evenodd" d="M28.6999 20.3L25.9999 17.6V13C25.9932 7.85764 22.1131 3.5464 16.9999 3V1H14.9999V3C9.9043 3.58089 6.04264 7.87162 5.99986 13V17.6L3.29986 20.3C3.10233 20.4783 2.99271 20.734 2.99986 21V24C2.98197 24.2703 3.08157 24.5352 3.27312 24.7267C3.46468 24.9183 3.72955 25.0179 3.99986 25H10.9999C10.9999 27.7614 13.2384 30 15.9999 30C18.7613 30 20.9999 27.7614 20.9999 25H27.9999C28.2702 25.0179 28.535 24.9183 28.7266 24.7267C28.9181 24.5352 29.0177 24.2703 28.9999 24V21C29.007 20.734 28.8974 20.4783 28.6999 20.3ZM15.9999 28C14.343 28 12.9999 26.6569 12.9999 25H18.9999C18.9999 26.6569 17.6567 28 15.9999 28ZM26.9999 23H4.99989V21.4L7.69989 18.7C7.89741 18.5217 8.00703 18.266 7.99989 18V13C7.99989 8.58172 11.5816 5 15.9999 5C20.4182 5 23.9999 8.58172 23.9999 13V18C23.9927 18.266 24.1024 18.5217 24.2999 18.7L26.9999 21.4V23Z" />
</svg>
