<svg viewBox="0 0 32 32" fill="currentColor" xmlns="http://www.w3.org/2000/svg">
<path fill-rule="evenodd" clip-rule="evenodd" d="M4.99989 23V21.4L7.69989 18.7C7.89741 18.5217 8.00703 18.266 7.99989 18V13C8.00181 9.9251 9.76594 7.12342 12.538 5.79281C15.3101 4.46221 18.5995 4.83818 20.9999 6.76L22.4399 5.33C20.9103 4.01073 19.0102 3.19687 16.9999 3V1H14.9999V3C9.90433 3.58089 6.04268 7.87162 5.99989 13V17.6L3.29989 20.3C3.10237 20.4783 2.99275 20.734 2.99989 21V23H4.99989ZM26 17.6V13C25.9937 11.4354 25.6204 9.89407 24.91 8.5L30 3.41L28.59 2L2 28.59L3.41 30L8.41 25H11C11 27.7614 13.2386 30 16 30C18.7614 30 21 27.7614 21 25H28C28.2703 25.0179 28.5352 24.9183 28.7267 24.7267C28.9183 24.5352 29.0179 24.2703 29 24V21C29.0071 20.734 28.8975 20.4783 28.7 20.3L26 17.6ZM16 28C14.3431 28 13 26.6569 13 25H19C19 26.6569 17.6569 28 16 28V28ZM27 23H10.42L23.42 10C23.8029 10.9539 23.9997 11.9722 24 13V18C23.9929 18.266 24.1025 18.5217 24.3 18.7L27 21.4V23Z" />
</svg>
