<svg viewBox="0 0 32 32" fill="currentColor" xmlns="http://www.w3.org/2000/svg">
<path fill-rule="evenodd" clip-rule="evenodd" d="M26.9998 16.76V15.23L28.9198 13.55C29.6506 12.906 29.811 11.8292 29.2998 11L26.9398 7.00004C26.5829 6.38188 25.9236 6.00078 25.2098 6.00004C24.9925 5.99838 24.7763 6.03216 24.5698 6.10004L22.1398 6.92004C21.7203 6.64125 21.2827 6.3907 20.8298 6.17004L20.3198 3.65004C20.1311 2.69981 19.2885 2.02148 18.3198 2.04004H13.6398C12.6712 2.02148 11.8286 2.69981 11.6398 3.65004L11.1298 6.17004C10.6738 6.39065 10.2328 6.64119 9.80985 6.92004L7.42985 6.06004C7.22115 6.00567 7.00502 5.98541 6.78985 6.00004C6.07605 6.00078 5.41675 6.38188 5.05985 7.00004L2.69985 11C2.21845 11.8271 2.39031 12.8792 3.10985 13.51L4.99985 15.24V16.77L3.10985 18.45C2.3691 19.086 2.1958 20.1639 2.69985 21L5.05985 25C5.41675 25.6182 6.07605 25.9993 6.78985 26C7.0072 26.0017 7.22337 25.9679 7.42985 25.9L9.85985 25.08C10.2794 25.3588 10.717 25.6094 11.1698 25.83L11.6798 28.35C11.8686 29.3003 12.7112 29.9786 13.6798 29.96H18.3998C19.3685 29.9786 20.2111 29.3003 20.3998 28.35L20.9098 25.83C21.3659 25.6094 21.8069 25.3589 22.2298 25.08L24.6498 25.9C24.8563 25.9679 25.0725 26.0017 25.2898 26C26.0036 25.9993 26.6629 25.6182 27.0198 25L29.2998 21C29.7812 20.173 29.6094 19.1209 28.8898 18.49L26.9998 16.76ZM10 16C10 19.3137 12.6863 22 16 22C17.5962 22.0162 19.1318 21.3893 20.2605 20.2605C21.3893 19.1318 22.0162 17.5962 22 16C22 12.6863 19.3137 10 16 10C12.6863 10 10 12.6863 10 16ZM13.1441 13.1442C13.8997 12.3885 14.9317 11.9751 16 12C17.0683 11.9751 18.1002 12.3885 18.8558 13.1442C19.6114 13.8998 20.0249 14.9317 20 16C20.0249 17.0683 19.6114 18.1002 18.8558 18.8559C18.1002 19.6115 17.0683 20.0249 16 20C14.9317 20.0249 13.8997 19.6115 13.1441 18.8559C12.3885 18.1002 11.9751 17.0683 12 16C11.9751 14.9317 12.3885 13.8998 13.1441 13.1442ZM21.7797 22.84L25.2097 24L27.5697 20L24.8497 17.53C25.0346 16.4949 25.0346 15.4352 24.8497 14.4L27.5697 12L25.2097 8.00005L21.7697 9.12005C20.964 8.44919 20.0513 7.91847 19.0697 7.55005L18.3597 4.00005H13.6397L12.9297 7.59005C11.9403 7.9483 11.0227 8.47994 10.2197 9.16005L6.78974 8.00005L4.42974 12L7.14974 14.47C6.96484 15.5052 6.96484 16.5649 7.14974 17.6L4.42974 20L6.78974 24L10.2297 22.88C11.0355 23.5509 11.9482 24.0816 12.9297 24.4501L13.6397 28H18.3597L19.0697 24.41C20.0591 24.0518 20.9768 23.5202 21.7797 22.84Z" />
</svg>
