<svg width="203" height="49" viewBox="0 0 203 49" fill="none" xmlns="http://www.w3.org/2000/svg">
<path d="M73.9004 20.8L84.7004 2.40002H79.9004L71.8004 16.2L63.7004 2.40002H58.9004L69.7004 20.8V31H73.8004V20.8H73.9004Z" fill="white"/>
<path d="M93.8998 2.40002H89.7998V31H93.8998V2.40002Z" fill="white"/>
<path d="M114.7 24.2L106.3 9.90002V31H102.2V2.40002H106.7L114.7 16.1L122.7 2.40002H127.3V31H123.2V9.90002L114.7 24.2Z" fill="white"/>
<path d="M141.3 2.40002H137.2V31H141.3V2.40002Z" fill="white"/>
<path d="M169.8 31H174.3L162.5 2.40002H158L146.2 31H150.7L154.1 22.8H166.5L169.8 31ZM155.7 18.8L160.2 7.79999L164.7 18.8H155.7Z" fill="white"/>
<path d="M201.7 2.40002H197.6V23.6L184.7 2.40002H180.2V31H184.3V9.79999L197.2 31H201.7V2.40002Z" fill="white"/>
<path d="M89.1 45.4C89.6 45.9 90.6 46.2 91.4 46.2C92.3 46.2 92.8 45.7999 92.8 45.2999C92.8 44.7999 92.5 44.4 91.8 44.2L90.9 43.9C89.7 43.5 89.1 42.7999 89.1 41.7999C89.1 40.4999 90.2 39.7 91.7 39.7C92.6 39.7 93.2 39.8999 93.5 40.0999V41.4C93 41.1 92.3 40.9 91.7 40.9C90.9 40.9 90.3 41.1999 90.3 41.7999C90.3 42.2999 90.6 42.6 91.3 42.9L92.2 43.2C93.5 43.6 94.1 44.3 94 45.4C94 46.8 92.9 47.5999 91.3 47.5999C90.4 47.5999 89.6 47.3999 89 46.9999L89.1 45.4Z" fill="white"/>
<path d="M99.4998 39.6C100.3 39.6 100.9 39.7 101.4 39.9V41.2C100.9 41 100.3 40.8 99.5998 40.8C97.7998 40.8 96.6998 42 96.6998 43.5C96.6998 45 97.7998 46.2 99.5998 46.2C100.4 46.2 101 46 101.4 45.8V47.1C100.9 47.3 100.4 47.4 99.4998 47.4C97.0998 47.4 95.2998 45.7 95.2998 43.5C95.3998 41.3 97.0998 39.6 99.4998 39.6Z" fill="white"/>
<path d="M103.3 39.7H107.9V40.9H104.5V42.7999H106.9V43.9999H104.5V45.9999H107.9V47.2H103.3V39.7Z" fill="white"/>
<path d="M111 42.4V47.2H109.7V39.6L115 44.5V39.7H116.3V47.3L111 42.4Z" fill="white"/>
<path d="M120.1 40.9H117.9V39.7H123.7V40.9H121.5V47.2H120.2V40.9H120.1Z" fill="white"/>
<path d="M126.5 39.7H125.2V47.2H126.5V39.7Z" fill="white"/>
<path d="M130 45.5L129.1 47.2H127.8L131.7 39.6L135.6 47.2H134.2L133.3 45.5H130ZM131.7 42.2L130.6 44.5H132.8L131.7 42.2Z" fill="white"/>
<path d="M136.9 39.7H138.2V45.9999H141.7V47.2H136.9V39.7Z" fill="white"/>
<path d="M149.6 39.6C150.4 39.6 151 39.7 151.5 39.9V41.2C151 41 150.4 40.8 149.7 40.8C147.9 40.8 146.8 42 146.8 43.5C146.8 45 147.9 46.2 149.7 46.2C150.5 46.2 151.1 46 151.5 45.8V47.1C151 47.3 150.5 47.4 149.6 47.4C147.2 47.4 145.4 45.7 145.4 43.5C145.4 41.3 147.1 39.6 149.6 39.6Z" fill="white"/>
<path d="M156.6 47.4C154.4 47.4 152.6 45.7 152.6 43.5C152.6 41.3 154.4 39.6 156.6 39.6C158.8 39.6 160.6 41.3 160.6 43.5C160.6 45.6 158.8 47.4 156.6 47.4ZM156.6 46.2C158.1 46.2 159.3 45 159.3 43.5C159.3 42 158.1 40.8 156.6 40.8C155.1 40.8 153.9 42 153.9 43.5C153.9 45 155 46.2 156.6 46.2Z" fill="white"/>
<path d="M162.4 39.6L166.2 43.6L170 39.6V47.2H168.7V42.6L166.2 45.3L163.7 42.6V47.2H162.4V39.6Z" fill="white"/>
<path d="M177.6 41.9999C177.6 43.2999 176.6 44.2999 175 44.2999H173.5V47.2H172.2V39.7H174.9C176.6 39.7 177.6 40.6999 177.6 41.9999ZM176.4 41.9999C176.4 41.3999 175.9 40.9 175.1 40.9H173.6V43.2H175.1C175.9 43.1 176.4 42.5999 176.4 41.9999Z" fill="white"/>
<path d="M180 45.5L179.1 47.2H177.8L181.7 39.6L185.6 47.2H184.2L183.3 45.5H180ZM181.7 42.2L180.6 44.5H182.8L181.7 42.2Z" fill="white"/>
<path d="M188.1 42.4V47.2H186.8V39.6L192.1 44.5V39.7H193.4V47.3L188.1 42.4Z" fill="white"/>
<path d="M197.8 44.0999L194.9 39.7999H196.4L198.5 42.9L200.6 39.7999H202.1L199.2 44.0999V47.2999H197.9V44.0999H197.8Z" fill="white"/>
<path d="M62.9998 45.5L62.0998 47.2H60.7998L64.6998 39.6L68.5998 47.2H67.2998L66.3998 45.5H62.9998ZM64.6998 42.2L63.5998 44.5H65.7998L64.6998 42.2Z" fill="white"/>
<path d="M71.2004 42.4V47.2H69.9004V39.6L75.2004 44.5V39.7H76.5004V47.3L71.2004 42.4Z" fill="white"/>
<path d="M82.4998 45.5L81.5998 47.2H80.2998L84.1998 39.6L88.0998 47.2H86.7998L85.8998 45.5H82.4998ZM84.1998 42.2L83.0998 44.5H85.2998L84.1998 42.2Z" fill="white"/>
<path d="M12.8 0.599976C7.8 0.599976 3.5 3.7 1.9 8C2.3 6.9 3 5.9 3.9 5C7.3 1.7 12.9 1.7 16.3 5C17.8 6.4 18.6 8.29998 18.7 10.1C18.7 11.6 18.1 12.9 17.2 13.9L17.1 14L12.9 18.1L3.2 27.6C1.2 29.8 0 32.8 0 36C0 42.8 5.6 48.4 12.5 48.6C10.4 48.5 8.3 47.7 6.7 46.1C3.8 43.3 2.8 37.6 6.6 34.2L21.2 20.1L21.3 20C21.6 19.7 21.9 19.4 22.2 19C23.7 17.1 24.6 14.7 24.6 12C24.5 5.7 19.2 0.599976 12.8 0.599976Z" fill="white"/>
<path opacity="0.4" d="M5.00038 40.6C5.30038 41.3 5.70038 41.9 6.30038 42.5C8.60038 44.7 12.2004 44.6 14.5004 42.4L29.5004 27.8C31.6004 25.9 34.4004 24.6 37.5004 24.6C39.1004 24.6 40.6004 24.9 41.9004 25.4C42.9004 25.8 43.9004 26.5 44.7004 27.2C48.1004 30.5 48.1004 35.9 44.7004 39.3C43.9004 40.1 43.0004 40.7 42.0004 41.1C44.0004 40.2 45.4004 38.2 45.4004 35.9C45.4004 32.8 42.8004 30.2 39.6004 30.2C38.2004 30.2 36.8004 30.7 35.8004 31.5L22.2004 44.7C19.8004 47 16.6004 48.5 12.9004 48.5C10.7004 48.5 8.40038 47.7 6.70038 46C3.50038 42.9 3.30038 37.5 6.00038 34.6C6.00038 34.6 6.10038 34.5 6.00038 34.6C4.50038 36.4 4.20038 38.6 5.00038 40.6Z" fill="white"/>
<path opacity="0.4" d="M18.2996 8.20004C17.4996 6.00004 15.2996 4.40005 12.7996 4.40005C9.59961 4.40005 6.99961 6.9 6.99961 10.1C6.99961 11.7 7.69961 13.1 8.69961 14.1L9.39961 14.8L11.3996 16.7L12.7996 18.1L7.69961 23.1L4.89961 20.4C2.59961 18.3 1.09961 15.3 1.09961 12C1.09961 10.6 1.39961 9.20005 1.89961 7.90005C2.29961 6.90005 2.99961 5.80002 3.79961 5.00002C7.19961 1.70002 12.7996 1.70002 16.1996 5.00002C17.1996 5.90002 17.8996 7.00004 18.2996 8.20004Z" fill="white"/>
<path d="M41.6998 25.4C42.7998 25.9 43.6998 26.5 44.5998 27.3C47.9998 30.6 47.9998 36 44.5998 39.4C43.7998 40.2 42.8998 40.8 41.8998 41.2C41.3998 41.4 40.1998 41.7 39.4998 41.7C37.9998 41.7 36.6998 41.2 35.4998 40.2L17.8998 23.1L12.7998 28L29.5998 44.4C31.7998 46.2 34.3998 47.4 37.4998 47.4C43.8998 47.4 49.1998 42.3 49.1998 36C49.0998 31.2 46.0998 27.1 41.6998 25.4Z" fill="url(#paint0_linear_1133_7486)"/>
<defs>
<linearGradient id="paint0_linear_1133_7486" x1="12.7679" y1="35.2265" x2="49.0987" y2="35.2265" gradientUnits="userSpaceOnUse">
<stop stop-color="white" stop-opacity="0.5"/>
<stop offset="0.3" stop-color="white"/>
</linearGradient>
</defs>
</svg>
