<svg width="191" height="45" viewBox="0 0 191 45" fill="none" xmlns="http://www.w3.org/2000/svg">
<path d="M185.627 0H185.405L181.006 10.0718H181.552L185.509 0.970418L189.436 10.0718H190.012L185.627 0Z" fill="white"/>
<path d="M66.3186 16.2841L75.6696 0H71.553L64.5397 12.2103L57.5189 0H53.4023L62.7458 16.2577V25.3086H66.3186V16.2841Z" fill="white"/>
<path d="M83.5401 0H79.9712V25.3124H83.5401V0Z" fill="white"/>
<path d="M102.069 19.3149L94.8635 6.64364V25.3086H91.2908V0H95.1883L102.069 12.0931L108.95 0H112.89V25.3086H109.321V6.57184L102.069 19.3149Z" fill="white"/>
<path d="M124.279 0H120.71V25.3124H124.279V0Z" fill="white"/>
<path d="M148.945 25.3124H152.789L142.641 0H138.789L128.641 25.3124H132.486L135.386 18.0792H146.04L148.945 25.3124ZM136.825 14.5079L140.719 4.79189L144.613 14.5079H136.825Z" fill="white"/>
<path d="M176.469 0H172.9V18.7783L161.808 0H157.952V25.3086H161.521V6.53027L172.613 25.3086H176.469V0Z" fill="white"/>
<path d="M58.6923 39.4119H55.5226V42.7498H54.5266V35.1916H59.2059V36.0118H55.5226V38.597H58.6923V39.4119Z" fill="white"/>
<path d="M63.0393 37.9948C62.894 37.9706 62.7367 37.9585 62.5672 37.9585C61.9378 37.9585 61.5107 38.2267 61.2859 38.7631V42.7498H60.3262V37.1331H61.2599L61.2755 37.782C61.5902 37.2802 62.0364 37.0293 62.6139 37.0293C62.8007 37.0293 62.9425 37.0535 63.0393 37.1019V37.9948Z" fill="white"/>
<path d="M63.7809 39.8895C63.7809 39.3393 63.8881 38.8444 64.1026 38.4049C64.3204 37.9654 64.6213 37.6262 65.0052 37.3874C65.3925 37.1487 65.8335 37.0293 66.328 37.0293C67.0924 37.0293 67.7097 37.294 68.18 37.8235C68.6538 38.353 68.8907 39.0572 68.8907 39.9362V40.0037C68.8907 40.5505 68.7853 41.0419 68.5743 41.478C68.3668 41.9105 68.0676 42.248 67.6768 42.4902C67.2895 42.7325 66.8434 42.8536 66.3384 42.8536C65.5776 42.8536 64.9602 42.5888 64.4864 42.0594C64.0161 41.5299 63.7809 40.8291 63.7809 39.957V39.8895ZM64.7458 40.0037C64.7458 40.6266 64.8893 41.1267 65.1764 41.5039C65.4669 41.8811 65.8542 42.0697 66.3384 42.0697C66.8261 42.0697 67.2134 41.8794 67.5005 41.4987C67.7875 41.1146 67.931 40.5782 67.931 39.8895C67.931 39.2735 67.784 38.7752 67.4901 38.3945C67.1996 38.0104 66.8122 37.8183 66.328 37.8183C65.8542 37.8183 65.4721 38.0069 65.1816 38.3841C64.8911 38.7613 64.7458 39.3012 64.7458 40.0037Z" fill="white"/>
<path d="M71.2094 37.1331L71.2353 37.756C71.6469 37.2715 72.202 37.0293 72.9006 37.0293C73.6856 37.0293 74.2199 37.3303 74.5035 37.9325C74.6903 37.6626 74.9324 37.4445 75.2298 37.2784C75.5307 37.1123 75.8852 37.0293 76.2933 37.0293C77.5245 37.0293 78.1504 37.6816 78.1712 38.9863V42.7498H77.2115V39.0434C77.2115 38.6419 77.1198 38.3426 76.9365 38.1453C76.7532 37.9446 76.4454 37.8443 76.0131 37.8443C75.6569 37.8443 75.3612 37.9515 75.1261 38.1661C74.8909 38.3772 74.7543 38.6627 74.7162 39.0226V42.7498H73.7513V39.0693C73.7513 38.2526 73.3519 37.8443 72.553 37.8443C71.9236 37.8443 71.493 38.1125 71.2613 38.6489V42.7498H70.3016V37.1331H71.2094Z" fill="white"/>
<path d="M82.8345 42.7498V35.1916H84.9666C85.6237 35.1916 86.2047 35.337 86.7096 35.6277C87.2145 35.9184 87.6036 36.3319 87.8768 36.8683C88.1535 37.4047 88.2936 38.0207 88.297 38.7163V39.1991C88.297 39.912 88.1587 40.5367 87.882 41.0731C87.6088 41.6095 87.2163 42.0213 86.7044 42.3085C86.196 42.5958 85.6029 42.7428 84.9251 42.7498H82.8345ZM83.8305 36.0118V41.9348H84.8784C85.6461 41.9348 86.2427 41.696 86.6681 41.2184C87.097 40.7408 87.3114 40.0608 87.3114 39.1783V38.7371C87.3114 37.8789 87.1091 37.2127 86.7044 36.7386C86.3032 36.261 85.7326 36.0187 84.9925 36.0118H83.8305Z" fill="white"/>
<path d="M93.334 42.7498C93.2787 42.639 93.2337 42.4418 93.1991 42.158C92.753 42.6217 92.2204 42.8536 91.6013 42.8536C91.048 42.8536 90.5932 42.6979 90.237 42.3864C89.8842 42.0715 89.7079 41.6735 89.7079 41.1925C89.7079 40.6076 89.9292 40.1543 90.3719 39.8324C90.818 39.5071 91.444 39.3445 92.2498 39.3445H93.1836V38.9032C93.1836 38.5675 93.0833 38.3011 92.8827 38.1038C92.6821 37.9031 92.3864 37.8027 91.9956 37.8027C91.6532 37.8027 91.3662 37.8892 91.1344 38.0623C90.9027 38.2353 90.7869 38.4447 90.7869 38.6904H89.822C89.822 38.4101 89.9205 38.1401 90.1177 37.8806C90.3183 37.6176 90.588 37.4099 90.9269 37.2577C91.2693 37.1054 91.6446 37.0293 92.0527 37.0293C92.6994 37.0293 93.206 37.1919 93.5726 37.5172C93.9392 37.8391 94.1294 38.2838 94.1433 38.8513V41.4364C94.1433 41.9521 94.209 42.3622 94.3404 42.6667V42.7498H93.334ZM91.7414 42.0178C92.0423 42.0178 92.3276 41.94 92.5974 41.7842C92.8671 41.6285 93.0625 41.4261 93.1836 41.1769V40.0245H92.4314C91.2555 40.0245 90.6676 40.3688 90.6676 41.0575C90.6676 41.3586 90.7679 41.5939 90.9684 41.7635C91.169 41.933 91.4267 42.0178 91.7414 42.0178Z" fill="white"/>
<path d="M97.1623 35.773V37.1331H98.2102V37.8754H97.1623V41.3586C97.1623 41.5835 97.209 41.7531 97.3023 41.8673C97.3957 41.978 97.5548 42.0334 97.7796 42.0334C97.8903 42.0334 98.0424 42.0126 98.2361 41.9711V42.7498C97.9836 42.819 97.7381 42.8536 97.4995 42.8536C97.0706 42.8536 96.7473 42.7238 96.5294 42.4643C96.3115 42.2047 96.2026 41.8361 96.2026 41.3586V37.8754H95.1806V37.1331H96.2026V35.773H97.1623Z" fill="white"/>
<path d="M103.014 42.7498C102.958 42.639 102.913 42.4418 102.879 42.158C102.433 42.6217 101.9 42.8536 101.281 42.8536C100.728 42.8536 100.273 42.6979 99.9167 42.3864C99.5639 42.0715 99.3875 41.6735 99.3875 41.1925C99.3875 40.6076 99.6089 40.1543 100.052 39.8324C100.498 39.5071 101.124 39.3445 101.929 39.3445H102.863V38.9032C102.863 38.5675 102.763 38.3011 102.562 38.1038C102.362 37.9031 102.066 37.8027 101.675 37.8027C101.333 37.8027 101.046 37.8892 100.814 38.0623C100.582 38.2353 100.467 38.4447 100.467 38.6904H99.5017C99.5017 38.4101 99.6002 38.1401 99.7974 37.8806C99.998 37.6176 100.268 37.4099 100.607 37.2577C100.949 37.1054 101.324 37.0293 101.732 37.0293C102.379 37.0293 102.886 37.1919 103.252 37.5172C103.619 37.8391 103.809 38.2838 103.823 38.8513V41.4364C103.823 41.9521 103.889 42.3622 104.02 42.6667V42.7498H103.014ZM101.421 42.0178C101.722 42.0178 102.007 41.94 102.277 41.7842C102.547 41.6285 102.742 41.4261 102.863 41.1769V40.0245H102.111C100.935 40.0245 100.347 40.3688 100.347 41.0575C100.347 41.3586 100.448 41.5939 100.648 41.7635C100.849 41.933 101.106 42.0178 101.421 42.0178Z" fill="white"/>
<path d="M109.69 35.773V37.1331H110.738V37.8754H109.69V41.3586C109.69 41.5835 109.736 41.7531 109.83 41.8673C109.923 41.978 110.082 42.0334 110.307 42.0334C110.418 42.0334 110.57 42.0126 110.764 41.9711V42.7498C110.511 42.819 110.266 42.8536 110.027 42.8536C109.598 42.8536 109.275 42.7238 109.057 42.4643C108.839 42.2047 108.73 41.8361 108.73 41.3586V37.8754H107.708V37.1331H108.73V35.773H109.69Z" fill="white"/>
<path d="M111.718 39.8895C111.718 39.3393 111.825 38.8444 112.04 38.4049C112.257 37.9654 112.558 37.6262 112.942 37.3874C113.33 37.1487 113.77 37.0293 114.265 37.0293C115.029 37.0293 115.647 37.294 116.117 37.8235C116.591 38.353 116.828 39.0572 116.828 39.9362V40.0037C116.828 40.5505 116.722 41.0419 116.511 41.478C116.304 41.9105 116.005 42.248 115.614 42.4902C115.226 42.7325 114.78 42.8536 114.275 42.8536C113.515 42.8536 112.897 42.5888 112.423 42.0594C111.953 41.5299 111.718 40.8291 111.718 39.957V39.8895ZM112.683 40.0037C112.683 40.6266 112.826 41.1267 113.113 41.5039C113.404 41.8811 113.791 42.0697 114.275 42.0697C114.763 42.0697 115.15 41.8794 115.437 41.4987C115.724 41.1146 115.868 40.5782 115.868 39.8895C115.868 39.2735 115.721 38.7752 115.427 38.3945C115.137 38.0104 114.749 37.8183 114.265 37.8183C113.791 37.8183 113.409 38.0069 113.119 38.3841C112.828 38.7613 112.683 39.3012 112.683 40.0037Z" fill="white"/>
<path d="M122.311 42.7498H121.315V35.1916H122.311V42.7498Z" fill="white"/>
<path d="M125.107 37.1331L125.138 37.8391C125.567 37.2992 126.127 37.0293 126.818 37.0293C128.005 37.0293 128.603 37.6989 128.613 39.0382V42.7498H127.654V39.033C127.65 38.6281 127.557 38.3287 127.374 38.135C127.194 37.9412 126.912 37.8443 126.528 37.8443C126.217 37.8443 125.943 37.9273 125.708 38.0934C125.473 38.2595 125.29 38.4776 125.158 38.7475V42.7498H124.199V37.1331H125.107Z" fill="white"/>
<path d="M131.575 35.773V37.1331H132.623V37.8754H131.575V41.3586C131.575 41.5835 131.622 41.7531 131.715 41.8673C131.809 41.978 131.968 42.0334 132.193 42.0334C132.303 42.0334 132.455 42.0126 132.649 41.9711V42.7498C132.397 42.819 132.151 42.8536 131.913 42.8536C131.484 42.8536 131.16 42.7238 130.942 42.4643C130.725 42.2047 130.616 41.8361 130.616 41.3586V37.8754H129.594V37.1331H130.616V35.773H131.575Z" fill="white"/>
<path d="M136.291 42.8536C135.53 42.8536 134.911 42.6044 134.433 42.1061C133.956 41.6043 133.718 40.9346 133.718 40.0972V39.9207C133.718 39.3635 133.823 38.8669 134.034 38.4308C134.248 37.9913 134.546 37.6487 134.926 37.403C135.31 37.1539 135.725 37.0293 136.171 37.0293C136.901 37.0293 137.468 37.2698 137.873 37.7508C138.278 38.2319 138.48 38.9205 138.48 39.8168V40.2165H134.677C134.691 40.7703 134.852 41.2184 135.16 41.561C135.471 41.9002 135.865 42.0697 136.343 42.0697C136.681 42.0697 136.969 42.0005 137.204 41.8621C137.439 41.7237 137.645 41.5403 137.821 41.3119L138.407 41.7687C137.937 42.4919 137.231 42.8536 136.291 42.8536ZM136.171 37.8183C135.784 37.8183 135.459 37.9602 135.196 38.244C134.933 38.5243 134.771 38.9188 134.708 39.4275H137.52V39.3548C137.492 38.8669 137.361 38.4897 137.126 38.2232C136.891 37.9533 136.573 37.8183 136.171 37.8183Z" fill="white"/>
<path d="M140.85 42.7498H139.891V34.7764H140.85V42.7498Z" fill="white"/>
<path d="M143.646 42.7498H142.687V34.7764H143.646V42.7498Z" fill="white"/>
<path d="M146.442 42.7498H145.483V37.1331H146.442V42.7498ZM145.405 35.6433C145.405 35.4875 145.451 35.356 145.545 35.2487C145.642 35.1415 145.783 35.0878 145.97 35.0878C146.157 35.0878 146.299 35.1415 146.396 35.2487C146.492 35.356 146.541 35.4875 146.541 35.6433C146.541 35.799 146.492 35.9288 146.396 36.0326C146.299 36.1364 146.157 36.1883 145.97 36.1883C145.783 36.1883 145.642 36.1364 145.545 36.0326C145.451 35.9288 145.405 35.799 145.405 35.6433Z" fill="white"/>
<path d="M147.967 39.8947C147.967 39.0192 148.17 38.3236 148.574 37.8079C148.979 37.2888 149.515 37.0293 150.182 37.0293C150.867 37.0293 151.401 37.2715 151.785 37.756L151.832 37.1331H152.709V42.6148C152.709 43.3415 152.493 43.9143 152.06 44.333C151.631 44.7518 151.054 44.9611 150.328 44.9611C149.923 44.9611 149.527 44.8746 149.14 44.7016C148.752 44.5285 148.457 44.2915 148.253 43.9904L148.751 43.4142C149.162 43.9229 149.665 44.1773 150.26 44.1773C150.727 44.1773 151.09 44.0458 151.35 43.7828C151.612 43.5198 151.744 43.1495 151.744 42.6719V42.1891C151.36 42.6321 150.836 42.8536 150.172 42.8536C149.515 42.8536 148.982 42.5888 148.574 42.0594C148.17 41.5299 147.967 40.8083 147.967 39.8947ZM148.932 40.0037C148.932 40.637 149.062 41.1354 149.321 41.4987C149.581 41.8586 149.944 42.0386 150.411 42.0386C151.016 42.0386 151.46 41.7635 151.744 41.2132V38.6489C151.45 38.1125 151.009 37.8443 150.421 37.8443C149.954 37.8443 149.589 38.0259 149.326 38.3893C149.064 38.7527 148.932 39.2908 148.932 40.0037Z" fill="white"/>
<path d="M156.703 42.8536C155.942 42.8536 155.323 42.6044 154.846 42.1061C154.369 41.6043 154.13 40.9346 154.13 40.0972V39.9207C154.13 39.3635 154.235 38.8669 154.446 38.4308C154.661 37.9913 154.958 37.6487 155.339 37.403C155.722 37.1539 156.137 37.0293 156.584 37.0293C157.313 37.0293 157.881 37.2698 158.285 37.7508C158.69 38.2319 158.892 38.9205 158.892 39.8168V40.2165H155.09C155.103 40.7703 155.264 41.2184 155.572 41.561C155.883 41.9002 156.278 42.0697 156.755 42.0697C157.094 42.0697 157.381 42.0005 157.616 41.8621C157.851 41.7237 158.057 41.5403 158.233 41.3119L158.819 41.7687C158.349 42.4919 157.644 42.8536 156.703 42.8536ZM156.584 37.8183C156.196 37.8183 155.871 37.9602 155.608 38.244C155.346 38.5243 155.183 38.9188 155.121 39.4275H157.932V39.3548C157.905 38.8669 157.773 38.4897 157.538 38.2232C157.303 37.9533 156.985 37.8183 156.584 37.8183Z" fill="white"/>
<path d="M161.128 37.1331L161.159 37.8391C161.588 37.2992 162.148 37.0293 162.84 37.0293C164.026 37.0293 164.624 37.6989 164.635 39.0382V42.7498H163.675V39.033C163.671 38.6281 163.578 38.3287 163.395 38.135C163.215 37.9412 162.933 37.8443 162.549 37.8443C162.238 37.8443 161.965 37.9273 161.73 38.0934C161.494 38.2595 161.311 38.4776 161.18 38.7475V42.7498H160.22V37.1331H161.128Z" fill="white"/>
<path d="M168.546 42.0697C168.888 42.0697 169.187 41.9659 169.443 41.7583C169.699 41.5506 169.841 41.2911 169.869 40.9796H170.777C170.759 41.3015 170.649 41.6077 170.445 41.8984C170.241 42.1891 169.967 42.421 169.625 42.594C169.286 42.7671 168.926 42.8536 168.546 42.8536C167.782 42.8536 167.173 42.5992 166.72 42.0905C166.27 41.5783 166.045 40.8793 166.045 39.9933V39.8324C166.045 39.2856 166.146 38.7994 166.346 38.3737C166.547 37.9481 166.834 37.6176 167.207 37.3823C167.584 37.1469 168.029 37.0293 168.541 37.0293C169.17 37.0293 169.692 37.2179 170.107 37.5951C170.526 37.9723 170.749 38.462 170.777 39.0641H169.869C169.841 38.7008 169.703 38.4032 169.454 38.1713C169.208 37.936 168.904 37.8183 168.541 37.8183C168.053 37.8183 167.674 37.9948 167.405 38.3478C167.138 38.6973 167.005 39.2043 167.005 39.8687V40.0504C167.005 40.6976 167.138 41.1959 167.405 41.5454C167.671 41.895 168.051 42.0697 168.546 42.0697Z" fill="white"/>
<path d="M174.397 42.8536C173.636 42.8536 173.017 42.6044 172.54 42.1061C172.063 41.6043 171.824 40.9346 171.824 40.0972V39.9207C171.824 39.3635 171.93 38.8669 172.141 38.4308C172.355 37.9913 172.653 37.6487 173.033 37.403C173.417 37.1539 173.832 37.0293 174.278 37.0293C175.008 37.0293 175.575 37.2698 175.98 37.7508C176.384 38.2319 176.586 38.9205 176.586 39.8168V40.2165H172.784C172.798 40.7703 172.959 41.2184 173.266 41.561C173.578 41.9002 173.972 42.0697 174.449 42.0697C174.788 42.0697 175.075 42.0005 175.31 41.8621C175.546 41.7237 175.751 41.5403 175.928 41.3119L176.514 41.7687C176.044 42.4919 175.338 42.8536 174.397 42.8536ZM174.278 37.8183C173.891 37.8183 173.566 37.9602 173.303 38.244C173.04 38.5243 172.877 38.9188 172.815 39.4275H175.627V39.3548C175.599 38.8669 175.468 38.4897 175.233 38.2232C174.997 37.9533 174.679 37.8183 174.278 37.8183Z" fill="white"/>
<path d="M11.8344 0C7.27123 0 3.37952 2.87164 1.86253 6.90568C2.25219 5.90514 2.85262 4.89234 3.6589 4.08308C6.78599 0.953945 11.854 0.953945 14.9811 4.08308C16.3192 5.42204 17.1083 7.13619 17.1598 8.87978C17.1598 10.2653 16.6427 11.5234 15.7776 12.4699L15.6575 12.5901L11.8344 16.4157L2.95064 25.3053C1.10527 27.3971 0 30.1535 0 33.1576C0 39.5654 5.08765 44.7815 11.4423 44.9899C9.52587 44.8967 7.65109 44.1046 6.17332 42.6529C3.54371 40.0706 2.61245 34.6829 6.04343 31.4557L19.3385 18.2181C19.3826 18.174 19.4292 18.1323 19.4708 18.0882C19.7477 17.8037 20.0075 17.5045 20.2526 17.1906C21.6519 15.3857 22.4852 13.1198 22.4852 10.6601C22.4852 4.77218 17.7161 0 11.8344 0Z" fill="white"/>
<path opacity="0.4" d="M4.71028 37.4638C4.97006 38.0965 5.35727 38.6875 5.86946 39.2025C7.95011 41.2845 11.2757 41.2085 13.3564 39.1265L27.0435 25.477C28.9526 23.6598 31.4793 22.4999 34.3221 22.4999C35.7533 22.4999 37.1159 22.7819 38.3633 23.2944C39.2554 23.6843 40.145 24.295 40.8753 25.0257C44.0024 28.1549 44.0024 33.2262 40.8753 36.3554C40.1107 37.1205 39.346 37.6502 38.405 38.0401C40.2405 37.199 41.5002 35.3082 41.5002 33.1576C41.5002 30.2148 39.1157 27.8287 36.1748 27.8287C34.8686 27.8287 33.6286 28.2628 32.7022 29.0451L20.282 41.4561C18.1352 43.6436 15.1454 44.9997 11.8394 44.9997C9.79059 44.9997 7.7418 44.2174 6.17825 42.6529C3.25947 39.7322 3.05606 34.678 5.53372 31.9927C5.53372 31.9927 5.62439 31.8799 5.53372 31.9927C4.30837 33.5303 3.97262 35.6197 4.71028 37.4638Z" fill="white"/>
<path opacity="0.4" d="M16.8514 7.1071C16.1186 5.03736 14.1532 3.55372 11.8348 3.55372C8.89397 3.55372 6.50944 5.9398 6.50944 8.88502C6.50944 10.3662 7.11477 11.7052 8.09014 12.6714L8.75183 13.331L10.5629 15.1457L11.8373 16.4209V16.4234L7.18829 21.068L4.63221 18.5054C2.5148 16.5583 1.18652 13.7626 1.18652 10.658C1.18652 9.30191 1.4414 8.00709 1.90213 6.81527C2.29424 5.84416 2.87751 4.8706 3.66173 4.08586C6.78882 0.95673 11.8569 0.95673 14.984 4.08586C15.8613 4.96379 16.4985 6.00356 16.8514 7.1071Z" fill="white"/>
<path d="M38.2237 23.238C39.2285 23.7211 40.0764 24.2287 40.8729 25.0257C44 28.1548 44 33.2262 40.8729 36.3553C40.1401 37.0886 39.2995 37.6502 38.4026 38.0401C37.9369 38.2485 36.8782 38.4864 36.1724 38.4864C34.7755 38.4864 33.5968 38.0597 32.5626 37.0763L16.4786 21.0652L11.8174 25.705L27.1465 41.0441C29.112 42.7632 31.5627 43.8152 34.3197 43.8152C40.2014 43.8152 44.9705 39.0431 44.9705 33.1575C44.9705 28.6281 42.2061 24.7829 38.2237 23.238Z" fill="url(#paint0_linear)"/>
<defs>
<linearGradient id="paint0_linear" x1="11.8216" y1="32.4491" x2="44.9728" y2="32.4491" gradientUnits="userSpaceOnUse">
<stop stop-color="white" stop-opacity="0.5"/>
<stop offset="0.3" stop-color="white"/>
</linearGradient>
</defs>
</svg>
