<svg width="290" height="27" viewBox="0 0 290 27" fill="none" xmlns="http://www.w3.org/2000/svg">
<path d="M2 2.336V19.472H4.616V11.792H13.136V9.56H4.616V4.568H13.64V2.336H2Z" fill="white"/>
<path d="M21.4653 6.728C20.6973 6.728 20.0253 6.944 19.4493 7.424C18.9693 7.76 18.5613 8.264 18.2493 8.936V7.064H15.7053V19.472H18.2493V12.896C18.2493 11.816 18.5613 10.928 19.2093 10.256C19.8093 9.632 20.5053 9.32 21.2733 9.32C21.8493 9.32 22.4493 9.392 23.0733 9.584V7.04C22.6413 6.824 22.0893 6.728 21.4653 6.728Z" fill="white"/>
<path d="M30.347 6.728C28.475 6.728 26.963 7.352 25.835 8.6C24.707 9.824 24.155 11.384 24.155 13.28C24.155 15.152 24.707 16.712 25.811 17.912C26.963 19.16 28.475 19.808 30.347 19.808C32.219 19.808 33.731 19.16 34.883 17.912C35.987 16.712 36.539 15.152 36.539 13.28C36.539 11.384 35.963 9.824 34.859 8.6C33.731 7.352 32.219 6.728 30.347 6.728ZM30.347 8.816C31.523 8.816 32.435 9.272 33.107 10.208C33.683 11 33.971 12.032 33.971 13.28C33.971 14.504 33.683 15.512 33.107 16.328C32.435 17.24 31.523 17.72 30.347 17.72C29.171 17.72 28.259 17.24 27.611 16.328C27.035 15.536 26.771 14.528 26.771 13.28C26.771 12.032 27.035 11 27.611 10.208C28.259 9.272 29.171 8.816 30.347 8.816Z" fill="white"/>
<path d="M44.9073 6.728C43.6593 6.728 42.5073 7.28 41.4993 8.432V7.064H38.9553V19.472H41.4993V12.008C41.4993 11.144 41.7393 10.4 42.2673 9.8C42.7473 9.176 43.4193 8.864 44.2353 8.864C45.9153 8.864 46.7793 9.824 46.7793 11.792V19.472H49.3233V11.84C49.3233 10.928 49.5633 10.184 50.0433 9.656C50.5233 9.128 51.0993 8.864 51.8193 8.864C52.7793 8.864 53.4993 9.08 53.9313 9.56C54.3633 10.016 54.5793 10.76 54.5793 11.768V19.472H57.1233V11.336C57.1233 9.944 56.6913 8.84 55.8753 8C55.0353 7.136 53.9793 6.728 52.7073 6.728C51.8673 6.728 51.1713 6.872 50.5953 7.184C49.9713 7.496 49.3713 8.048 48.8193 8.816C48.0513 7.424 46.7313 6.728 44.9073 6.728Z" fill="white"/>
<path d="M68.2344 2.336V19.472H74.4264C77.1864 19.472 79.2744 18.704 80.7144 17.168C82.0824 15.68 82.7784 13.592 82.7784 10.904C82.7784 8.192 82.1064 6.104 80.7624 4.664C79.3224 3.104 77.2344 2.336 74.4744 2.336H68.2344ZM70.8504 4.568H73.9944C76.1544 4.568 77.7384 5.072 78.7464 6.104C79.7064 7.112 80.2104 8.696 80.2104 10.904C80.2104 13.064 79.7064 14.648 78.7224 15.68C77.7144 16.712 76.1064 17.24 73.9464 17.24H70.8504V4.568Z" fill="white"/>
<path d="M90.7895 6.728C89.2535 6.728 88.0055 6.992 87.0935 7.568C86.0375 8.192 85.3655 9.2 85.1015 10.544L87.6215 10.76C87.7655 10.064 88.1255 9.56 88.7015 9.224C89.1815 8.936 89.8295 8.792 90.6215 8.792C92.4935 8.792 93.4295 9.656 93.4295 11.384V11.888L90.6455 11.96C88.8215 12.008 87.3815 12.368 86.3735 13.088C85.2695 13.832 84.7175 14.912 84.7175 16.304C84.7175 17.336 85.1015 18.176 85.8935 18.824C86.6135 19.472 87.6215 19.808 88.9175 19.808C90.0215 19.808 90.9815 19.592 91.7975 19.208C92.5175 18.848 93.1175 18.344 93.5975 17.72V19.472H95.9495V11.552C95.9495 10.04 95.5655 8.888 94.8215 8.096C93.9575 7.184 92.6135 6.728 90.7895 6.728ZM93.4295 13.736V14.456C93.4295 15.416 93.0215 16.232 92.2535 16.88C91.4855 17.528 90.5735 17.864 89.4935 17.864C88.8455 17.864 88.3175 17.696 87.9335 17.384C87.5255 17.072 87.3335 16.688 87.3335 16.208C87.3335 14.672 88.4855 13.856 90.8135 13.808L93.4295 13.736Z" fill="white"/>
<path d="M102.63 3.056L100.086 4.112V7.064H97.7816V9.176H100.086V16.376C100.086 17.36 100.302 18.104 100.782 18.632C101.262 19.184 102.054 19.472 103.11 19.472H105.15V17.36H103.518C103.206 17.36 102.99 17.264 102.846 17.12C102.702 16.952 102.63 16.712 102.63 16.376V9.176H105.462V7.064H102.63V3.056Z" fill="white"/>
<path d="M113.102 6.728C111.566 6.728 110.318 6.992 109.406 7.568C108.35 8.192 107.678 9.2 107.414 10.544L109.934 10.76C110.078 10.064 110.438 9.56 111.014 9.224C111.494 8.936 112.142 8.792 112.934 8.792C114.806 8.792 115.742 9.656 115.742 11.384V11.888L112.958 11.96C111.134 12.008 109.694 12.368 108.686 13.088C107.582 13.832 107.03 14.912 107.03 16.304C107.03 17.336 107.414 18.176 108.206 18.824C108.926 19.472 109.934 19.808 111.23 19.808C112.334 19.808 113.294 19.592 114.11 19.208C114.83 18.848 115.43 18.344 115.91 17.72V19.472H118.262V11.552C118.262 10.04 117.878 8.888 117.134 8.096C116.27 7.184 114.926 6.728 113.102 6.728ZM115.742 13.736V14.456C115.742 15.416 115.334 16.232 114.566 16.88C113.798 17.528 112.886 17.864 111.806 17.864C111.158 17.864 110.63 17.696 110.246 17.384C109.838 17.072 109.646 16.688 109.646 16.208C109.646 14.672 110.798 13.856 113.126 13.808L115.742 13.736Z" fill="white"/>
<path d="M132.934 3.056L130.39 4.112V7.064H128.086V9.176H130.39V16.376C130.39 17.36 130.606 18.104 131.086 18.632C131.566 19.184 132.358 19.472 133.414 19.472H135.454V17.36H133.822C133.51 17.36 133.294 17.264 133.15 17.12C133.006 16.952 132.934 16.712 132.934 16.376V9.176H135.766V7.064H132.934V3.056Z" fill="white"/>
<path d="M143.527 6.728C141.655 6.728 140.143 7.352 139.015 8.6C137.887 9.824 137.335 11.384 137.335 13.28C137.335 15.152 137.887 16.712 138.991 17.912C140.143 19.16 141.655 19.808 143.527 19.808C145.399 19.808 146.911 19.16 148.063 17.912C149.167 16.712 149.719 15.152 149.719 13.28C149.719 11.384 149.143 9.824 148.039 8.6C146.911 7.352 145.399 6.728 143.527 6.728ZM143.527 8.816C144.703 8.816 145.615 9.272 146.287 10.208C146.863 11 147.151 12.032 147.151 13.28C147.151 14.504 146.863 15.512 146.287 16.328C145.615 17.24 144.703 17.72 143.527 17.72C142.351 17.72 141.439 17.24 140.791 16.328C140.215 15.536 139.951 14.528 139.951 13.28C139.951 12.032 140.215 11 140.791 10.208C141.439 9.272 142.351 8.816 143.527 8.816Z" fill="white"/>
<path d="M161.927 2.096C161.423 2.096 161.015 2.24 160.679 2.576C160.343 2.888 160.175 3.296 160.175 3.8C160.175 4.28 160.343 4.712 160.679 5.048C161.015 5.36 161.423 5.528 161.927 5.528C162.407 5.528 162.839 5.36 163.175 5.048C163.511 4.712 163.703 4.304 163.703 3.8C163.703 3.296 163.535 2.888 163.199 2.576C162.863 2.24 162.431 2.096 161.927 2.096ZM160.655 7.064V19.472H163.199V7.064H160.655Z" fill="white"/>
<path d="M172.931 6.728C172.163 6.728 171.467 6.872 170.843 7.208C170.219 7.52 169.667 7.976 169.187 8.6V7.064H166.643V19.472H169.187V12.008C169.283 11 169.643 10.208 170.219 9.632C170.747 9.104 171.395 8.864 172.115 8.864C174.035 8.864 175.019 9.92 175.019 12.032V19.472H177.563V11.816C177.563 8.408 176.003 6.728 172.931 6.728Z" fill="white"/>
<path d="M184.239 3.056L181.695 4.112V7.064H179.391V9.176H181.695V16.376C181.695 17.36 181.911 18.104 182.391 18.632C182.871 19.184 183.663 19.472 184.719 19.472H186.759V17.36H185.127C184.815 17.36 184.599 17.264 184.455 17.12C184.311 16.952 184.239 16.712 184.239 16.376V9.176H187.071V7.064H184.239V3.056Z" fill="white"/>
<path d="M194.375 6.728C192.551 6.728 191.087 7.352 190.031 8.624C188.927 9.872 188.399 11.408 188.399 13.256C188.399 15.296 188.975 16.904 190.127 18.104C191.183 19.232 192.647 19.808 194.471 19.808C196.127 19.808 197.495 19.328 198.575 18.392C199.439 17.624 199.991 16.64 200.279 15.488H197.735C197.399 16.208 197.039 16.76 196.607 17.096C196.055 17.504 195.335 17.72 194.447 17.72C193.439 17.72 192.647 17.384 192.071 16.76C191.495 16.112 191.183 15.176 191.087 13.976H200.495C200.471 11.768 199.967 10.04 199.007 8.792C197.951 7.4 196.391 6.728 194.375 6.728ZM194.447 8.816C196.463 8.816 197.591 9.896 197.831 12.056H191.135C191.279 11 191.639 10.208 192.167 9.656C192.743 9.08 193.487 8.816 194.447 8.816Z" fill="white"/>
<path d="M202.954 2V19.472H205.498V2H202.954Z" fill="white"/>
<path d="M208.954 2V19.472H211.498V2H208.954Z" fill="white"/>
<path d="M216.466 2.096C215.962 2.096 215.554 2.24 215.218 2.576C214.882 2.888 214.714 3.296 214.714 3.8C214.714 4.28 214.882 4.712 215.218 5.048C215.554 5.36 215.962 5.528 216.466 5.528C216.946 5.528 217.378 5.36 217.714 5.048C218.05 4.712 218.242 4.304 218.242 3.8C218.242 3.296 218.074 2.888 217.738 2.576C217.402 2.24 216.97 2.096 216.466 2.096ZM215.194 7.064V19.472H217.738V7.064H215.194Z" fill="white"/>
<path d="M226.342 6.728C224.662 6.728 223.294 7.304 222.262 8.48C221.206 9.632 220.702 11.12 220.702 12.992C220.702 14.864 221.206 16.352 222.262 17.48C223.294 18.608 224.662 19.184 226.342 19.184C227.974 19.184 229.222 18.488 230.134 17.12V19.04C230.134 21.368 229.054 22.544 226.894 22.544C225.886 22.544 225.142 22.376 224.686 22.088C224.206 21.776 223.918 21.248 223.774 20.528H221.23C221.47 21.896 222.022 22.904 222.934 23.576C223.846 24.224 225.166 24.56 226.894 24.56C230.734 24.56 232.678 22.592 232.678 18.656V7.064H230.134V8.72C229.222 7.376 227.974 6.728 226.342 6.728ZM226.726 8.792C227.806 8.792 228.646 9.152 229.27 9.92C229.846 10.664 230.158 11.696 230.158 12.992C230.158 14.264 229.846 15.272 229.27 16.016C228.646 16.736 227.806 17.096 226.726 17.096C225.478 17.096 224.59 16.664 224.038 15.848C223.558 15.152 223.318 14.192 223.318 12.992C223.318 11.672 223.606 10.64 224.23 9.92C224.806 9.152 225.646 8.792 226.726 8.792Z" fill="white"/>
<path d="M240.805 6.728C238.981 6.728 237.517 7.352 236.461 8.624C235.357 9.872 234.829 11.408 234.829 13.256C234.829 15.296 235.405 16.904 236.557 18.104C237.613 19.232 239.077 19.808 240.901 19.808C242.557 19.808 243.925 19.328 245.005 18.392C245.869 17.624 246.421 16.64 246.709 15.488H244.165C243.829 16.208 243.469 16.76 243.037 17.096C242.485 17.504 241.765 17.72 240.877 17.72C239.869 17.72 239.077 17.384 238.501 16.76C237.925 16.112 237.613 15.176 237.517 13.976H246.925C246.901 11.768 246.397 10.04 245.437 8.792C244.381 7.4 242.821 6.728 240.805 6.728ZM240.877 8.816C242.893 8.816 244.021 9.896 244.261 12.056H237.565C237.709 11 238.069 10.208 238.597 9.656C239.173 9.08 239.917 8.816 240.877 8.816Z" fill="white"/>
<path d="M255.384 6.728C254.616 6.728 253.92 6.872 253.296 7.208C252.672 7.52 252.12 7.976 251.64 8.6V7.064H249.096V19.472H251.64V12.008C251.736 11 252.096 10.208 252.672 9.632C253.2 9.104 253.848 8.864 254.568 8.864C256.488 8.864 257.472 9.92 257.472 12.032V19.472H260.016V11.816C260.016 8.408 258.456 6.728 255.384 6.728Z" fill="white"/>
<path d="M268.444 6.728C266.524 6.728 265.036 7.376 263.956 8.672C262.948 9.872 262.444 11.408 262.444 13.28C262.444 15.2 262.948 16.736 263.98 17.936C265.036 19.184 266.5 19.808 268.396 19.808C269.98 19.808 271.276 19.4 272.236 18.608C273.196 17.792 273.844 16.544 274.132 14.888H271.612C271.372 16.76 270.316 17.72 268.42 17.72C267.316 17.72 266.5 17.312 265.948 16.544C265.348 15.752 265.06 14.648 265.06 13.256C265.06 11.864 265.348 10.76 265.972 9.992C266.572 9.2 267.388 8.816 268.444 8.816C269.308 8.816 270.004 9.008 270.532 9.416C271.06 9.8 271.396 10.424 271.564 11.264H274.084C273.844 9.728 273.22 8.576 272.26 7.808C271.3 7.088 270.028 6.728 268.444 6.728Z" fill="white"/>
<path d="M281.563 6.728C279.739 6.728 278.275 7.352 277.219 8.624C276.115 9.872 275.587 11.408 275.587 13.256C275.587 15.296 276.163 16.904 277.315 18.104C278.371 19.232 279.835 19.808 281.659 19.808C283.315 19.808 284.683 19.328 285.763 18.392C286.627 17.624 287.179 16.64 287.467 15.488H284.923C284.587 16.208 284.227 16.76 283.795 17.096C283.243 17.504 282.523 17.72 281.635 17.72C280.627 17.72 279.835 17.384 279.259 16.76C278.683 16.112 278.371 15.176 278.275 13.976H287.683C287.659 11.768 287.155 10.04 286.195 8.792C285.139 7.4 283.579 6.728 281.563 6.728ZM281.635 8.816C283.651 8.816 284.779 9.896 285.019 12.056H278.323C278.467 11 278.827 10.208 279.355 9.656C279.931 9.08 280.675 8.816 281.635 8.816Z" fill="white"/>
</svg>
