<svg width="163" height="43" viewBox="0 0 163 43" fill="none" xmlns="http://www.w3.org/2000/svg">
<path d="M0 42.2733V26.9399H4.30929C5.61212 26.9399 6.81474 27.2406 7.81692 27.8419C8.81909 28.4432 9.62086 29.2449 10.2222 30.3473C10.8235 31.4497 11.024 32.6523 11.024 34.0554V35.0576C11.024 36.4606 10.7233 37.7634 10.2222 38.8658C9.62086 39.9682 8.81909 40.77 7.81692 41.3713C6.81474 41.9726 5.61215 42.2733 4.2091 42.2733H0ZM2.00436 28.5434V40.5695H4.10891C5.71239 40.5695 6.91498 40.0684 7.71672 39.0663C8.61868 38.0641 9.0196 36.7613 9.0196 34.9574V34.0554C9.0196 32.3517 8.61866 30.9487 7.81692 29.9465C7.01517 28.9443 5.81256 28.4432 4.30929 28.4432H2.00436V28.5434Z" fill="white"/>
<path d="M23.0499 42.2733C22.9497 42.0729 22.8494 41.672 22.7492 41.0707C21.8473 41.9727 20.7449 42.4738 19.5423 42.4738C18.4399 42.4738 17.5379 42.1731 16.7362 41.4716C16.0346 40.8703 15.6338 40.0685 15.6338 39.0664C15.6338 37.8638 16.1349 36.9618 17.0369 36.2603C17.9388 35.5588 19.2416 35.2581 20.8451 35.2581H22.7492V34.3561C22.7492 33.6546 22.5488 33.1535 22.1479 32.7527C21.7471 32.3518 21.1457 32.1513 20.344 32.1513C19.6425 32.1513 19.0412 32.3517 18.6403 32.6524C18.1392 33.0533 17.9387 33.4542 17.9387 33.9553H15.9344C15.9344 33.354 16.1349 32.8528 16.5358 32.3518C16.9366 31.8507 17.4377 31.4498 18.1392 31.0489C18.8408 30.6481 19.5422 30.5479 20.4442 30.5479C21.747 30.5479 22.7493 30.8485 23.551 31.55C24.2525 32.2516 24.6534 33.1535 24.7536 34.2559V39.4673C24.7536 40.4694 24.8538 41.3714 25.1545 41.9727V42.1731H23.0499V42.2733ZM19.8429 40.7701C20.4442 40.7701 21.0456 40.5696 21.5467 40.269C22.0478 39.9683 22.4486 39.5675 22.7492 39.0664V36.7614H21.246C18.8407 36.7614 17.6381 37.4629 17.6381 38.8659C17.6381 39.4672 17.8386 39.9683 18.2394 40.269C18.6403 40.5696 19.1414 40.7701 19.8429 40.7701Z" fill="white"/>
<path d="M32.5709 28.1425V30.9486H34.6755V32.4519H32.5709V39.5673C32.5709 40.0684 32.6711 40.3691 32.8715 40.5695C33.072 40.7699 33.3726 40.8701 33.8737 40.8701C34.0741 40.8701 34.3748 40.8702 34.7757 40.7699V42.3734C34.2746 42.4736 33.7735 42.5738 33.2724 42.5738C32.3705 42.5738 31.7692 42.2732 31.2681 41.7721C30.8672 41.271 30.5666 40.4693 30.5666 39.5673V32.5521H28.4619V31.0488H30.5666V28.2427H32.5709V28.1425Z" fill="white"/>
<path d="M46.0997 42.2733C45.9995 42.0729 45.8993 41.672 45.799 41.0707C44.8971 41.9727 43.7947 42.4738 42.5921 42.4738C41.4897 42.4738 40.5877 42.1731 39.786 41.4716C38.9842 40.7701 38.6836 40.0685 38.6836 39.0664C38.6836 37.8638 39.1847 36.9618 40.0867 36.2603C40.9886 35.5588 42.2914 35.2581 43.8949 35.2581H45.799V34.3561C45.799 33.6546 45.5986 33.1535 45.1978 32.7527C44.7969 32.3518 44.1955 32.1513 43.3938 32.1513C42.6923 32.1513 42.091 32.3517 41.6901 32.6524C41.189 33.0533 40.9885 33.4542 40.9885 33.9553H38.9842C38.9842 33.354 39.1847 32.8528 39.5856 32.3518C39.9864 31.8507 40.4875 31.4498 41.189 31.0489C41.8906 30.6481 42.592 30.5479 43.494 30.5479C44.7968 30.5479 45.7991 30.8485 46.6008 31.55C47.3023 32.2516 47.7032 33.1535 47.8034 34.2559V39.4673C47.8034 40.4694 47.9036 41.3714 48.2043 41.9727V42.1731H46.0997V42.2733ZM42.8927 40.7701C43.494 40.7701 44.0954 40.5696 44.5965 40.269C45.0976 39.9683 45.4984 39.5675 45.799 39.0664V36.7614H44.2958C41.8905 36.7614 40.6879 37.4629 40.6879 38.8659C40.6879 39.4672 40.8884 39.9683 41.2892 40.269C41.6901 40.5696 42.2914 40.7701 42.8927 40.7701Z" fill="white"/>
<path d="M63.1373 28.1425V30.9486H65.2419V32.4519H63.1373V39.5673C63.1373 40.0684 63.2375 40.3691 63.4379 40.5695C63.6384 40.7699 63.939 40.8701 64.4401 40.8701C64.6405 40.8701 64.9412 40.8702 65.3421 40.7699V42.3734C64.841 42.4736 64.3399 42.5738 63.8388 42.5738C62.9369 42.5738 62.3356 42.2732 61.8345 41.7721C61.4336 41.271 61.133 40.4693 61.133 39.5673V32.5521H59.0283V31.0488H61.133V28.2427H63.1373V28.1425Z" fill="white"/>
<path d="M68.9492 36.4606C68.9492 35.3582 69.1497 34.3561 69.6508 33.4541C70.0517 32.5521 70.6529 31.8506 71.4547 31.3495C72.2564 30.8484 73.1584 30.6479 74.1606 30.6479C75.6639 30.6479 76.9666 31.1491 77.9688 32.2515C78.971 33.3539 79.3719 34.7569 79.3719 36.5608V36.661C79.3719 37.7634 79.1715 38.7656 78.7706 39.6676C78.3697 40.5695 77.7684 41.2711 76.9666 41.7722C76.1649 42.2733 75.263 42.4737 74.2608 42.4737C72.7575 42.4737 71.4546 41.9726 70.5527 40.8702C69.5505 39.7678 69.1497 38.3647 69.1497 36.5608V36.4606H68.9492ZM70.9536 36.661C70.9536 37.9638 71.2543 38.966 71.8556 39.6676C72.4569 40.4693 73.2587 40.77 74.1606 40.77C75.1628 40.77 75.9644 40.3691 76.5657 39.5674C77.1671 38.7656 77.4677 37.6632 77.4677 36.2602C77.4677 35.0576 77.1671 33.9552 76.5657 33.2536C75.9644 32.4519 75.1628 32.051 74.1606 32.051C73.1584 32.051 72.4569 32.4519 71.8556 33.1534C71.2543 34.1556 70.9536 35.258 70.9536 36.661Z" fill="white"/>
<path d="M100.217 38.2645H93.8035L92.4004 42.2733H90.2959L96.1085 26.9399H97.9124L103.825 42.2733H101.721L100.217 38.2645ZM94.4048 36.5608H99.6161L97.0104 29.3451L94.4048 36.5608Z" fill="white"/>
<path d="M112.244 40.8701C112.945 40.8701 113.546 40.6697 114.047 40.2689C114.549 39.868 114.849 39.3669 114.949 38.6653H116.753C116.753 39.3669 116.453 39.9682 116.052 40.5695C115.651 41.1708 115.05 41.6719 114.348 41.9726C113.647 42.3734 112.945 42.4737 112.143 42.4737C110.64 42.4737 109.337 41.9726 108.435 40.9704C107.533 39.9682 107.032 38.5652 107.032 36.7612V36.4606C107.032 35.3582 107.233 34.356 107.634 33.4541C108.034 32.5521 108.636 31.9508 109.337 31.4497C110.039 30.9486 111.041 30.7482 112.043 30.7482C113.346 30.7482 114.348 31.149 115.25 31.8505C116.052 32.6523 116.553 33.6545 116.553 34.8571H114.749C114.649 34.1555 114.448 33.5543 113.947 33.0532C113.446 32.5521 112.845 32.3516 112.043 32.3516C111.041 32.3516 110.239 32.7525 109.738 33.4541C109.237 34.1556 108.936 35.1577 108.936 36.5608V36.9617C108.936 38.2645 109.237 39.2667 109.738 39.9682C110.44 40.4693 111.241 40.8701 112.244 40.8701Z" fill="white"/>
<path d="M123.769 28.1425V30.9486H125.874V32.4519H123.769V39.5673C123.769 40.0684 123.869 40.3691 124.07 40.5695C124.27 40.7699 124.571 40.8701 125.072 40.8701C125.272 40.8701 125.573 40.8702 125.974 40.7699V42.3734C125.473 42.4736 124.972 42.5738 124.471 42.5738C123.569 42.5738 122.967 42.2732 122.466 41.7721C122.065 41.271 121.765 40.4693 121.765 39.5673V32.5521H119.66V31.0488H121.765V28.2427H123.769V28.1425Z" fill="white"/>
<path d="M130.283 27.8419C130.283 27.5412 130.383 27.2406 130.584 27.0401C130.784 26.8397 131.085 26.7395 131.486 26.7395C131.887 26.7395 132.187 26.8397 132.388 27.0401C132.588 27.2406 132.688 27.5412 132.688 27.8419C132.688 28.1425 132.588 28.4432 132.388 28.6436C132.187 28.844 131.887 28.9443 131.486 28.9443C131.085 28.9443 130.784 28.844 130.584 28.6436C130.383 28.4432 130.283 28.1425 130.283 27.8419ZM132.388 42.2733H130.484V30.8484H132.388V42.2733Z" fill="white"/>
<path d="M137.198 36.4606C137.198 35.3582 137.399 34.3561 137.9 33.4541C138.301 32.5521 138.902 31.8506 139.704 31.3495C140.505 30.8484 141.407 30.6479 142.41 30.6479C143.913 30.6479 145.216 31.1491 146.218 32.2515C147.22 33.3539 147.621 34.7569 147.621 36.5608V36.661C147.621 37.7634 147.421 38.7656 147.02 39.6676C146.619 40.5695 146.017 41.2711 145.216 41.7722C144.414 42.2733 143.512 42.4737 142.51 42.4737C141.007 42.4737 139.704 41.9726 138.802 40.8702C137.8 39.7678 137.399 38.3647 137.399 36.5608V36.4606H137.198ZM139.102 36.661C139.102 37.9638 139.403 38.966 140.004 39.6676C140.606 40.4693 141.407 40.77 142.309 40.77C143.312 40.77 144.113 40.3691 144.715 39.5674C145.316 38.7656 145.617 37.6632 145.617 36.2602C145.617 35.0576 145.316 33.9552 144.715 33.2536C144.113 32.4519 143.312 32.051 142.309 32.051C141.307 32.051 140.606 32.4519 140.004 33.1534C139.403 34.1556 139.102 35.258 139.102 36.661Z" fill="white"/>
<path d="M153.935 30.8484L154.035 32.2515C154.937 31.1491 156.039 30.6479 157.442 30.6479C159.848 30.6479 161.05 32.051 161.05 34.7569V42.2733H159.146V34.7569C159.146 33.9552 158.946 33.3539 158.545 32.953C158.144 32.5521 157.643 32.3517 156.841 32.3517C156.24 32.3517 155.638 32.5521 155.137 32.8528C154.636 33.1534 154.336 33.6545 154.035 34.1556V42.2733H152.131V30.8484H153.935Z" fill="white"/>
<path d="M3.60723 9.51952C2.80549 8.91821 1.30222 8.11647 0.0996094 7.51516L1.00159 6.11209C2.20421 6.61318 3.80767 7.41494 4.60941 8.01625L3.60723 9.51952ZM0.600698 17.0359C1.50266 15.5326 2.90563 13.1274 3.90781 11.0228L5.31089 12.2254C4.40893 14.2298 3.20634 16.4346 2.20416 18.2385L0.600698 17.0359ZM2.00377 1.1012C3.10617 1.60229 4.70956 2.40405 5.41108 3.00536L4.4089 4.50863C3.70738 3.90732 2.10399 3.00536 1.00159 2.50427L2.00377 1.1012ZM17.2368 16.4346C17.2368 17.4367 17.0363 17.9378 16.435 18.2385C15.8337 18.5391 14.8316 18.5391 13.4285 18.5391C13.3283 18.038 13.1279 17.2363 12.8272 16.7352C13.8294 16.8354 14.8316 16.7352 15.1323 16.7352C15.4329 16.7352 15.5332 16.635 15.5332 16.3343V3.10555H7.31524V18.5391H5.61159V1.50209H17.2368V16.4346ZM14.6312 6.31253H8.31742V4.80927H14.6312V6.31253ZM10.2216 14.2298V15.4324H8.81851V8.01625H14.1301V14.2298H10.2216ZM10.2216 9.51952V12.7265H12.6268V9.51952H10.2216Z" fill="white"/>
<path d="M34.3736 16.4347C35.2755 16.4347 35.3757 16.0338 35.4759 13.5284C35.8768 13.829 36.6787 14.1297 37.0795 14.2299C36.8791 17.3366 36.3779 18.0382 34.4738 18.0382H31.2668C29.1623 18.0382 28.561 17.5371 28.561 15.7332V11.6242C27.7593 15.0316 25.7549 17.3366 20.6438 18.6394C20.4433 18.1383 19.9423 17.4368 19.6416 17.036C26.9575 15.3323 27.1579 11.7244 27.3583 5.21029H29.2625C29.1623 7.5153 29.0621 9.4194 28.7614 11.1231H30.4651V15.6329C30.4651 16.2342 30.6656 16.3344 31.5675 16.3344H34.3736V16.4347ZM23.9509 12.8268H22.0469V1.80286H34.7745V12.8268H32.7701V3.60676H23.9509V12.8268Z" fill="white"/>
<path d="M42.9917 7.21447C42.0898 8.21665 40.8872 9.21883 39.7848 9.71992C39.5844 9.31905 39.1835 8.71772 38.8828 8.31685C40.1856 7.81576 41.4885 6.81357 42.4906 5.61095H39.1835V4.20794H42.9917V0.700317H44.5953V4.20794H48.4035V5.61095H45.0964C45.9984 6.21226 47.5015 7.11423 47.9024 7.31467L46.9002 8.61749C46.3991 8.21662 45.397 7.41491 44.5953 6.71339V9.11858H42.9917V7.21447V7.21447ZM45.9983 17.3364C45.5974 17.0358 44.9961 16.6349 44.3948 16.3343C43.092 17.3364 41.4885 18.1382 39.6846 18.5391C39.4842 18.1382 39.1835 17.5369 38.8828 17.136C40.3861 16.8353 41.7891 16.2341 42.8915 15.4323C41.9896 14.9313 40.9875 14.5303 40.0855 14.1295C40.4864 13.6284 40.8872 12.9269 41.2881 12.2254H39.4841V10.7221H41.9895C42.19 10.3212 42.3904 9.92034 42.4906 9.51947L44.0942 9.82011C43.994 10.1208 43.7935 10.4214 43.6933 10.7221H46.4993L46.8 10.6218L47.8022 11.0227C47.3011 12.7264 46.4993 14.0292 45.4972 15.1316C46.0985 15.4323 46.5996 15.733 47.0004 16.0336L45.9983 17.3364ZM40.8872 4.30813C40.6867 3.60661 40.2859 2.60443 39.7848 1.80269L41.0877 1.3016C41.5888 2.00312 42.0898 3.00533 42.2902 3.70685L40.8872 4.30813ZM43.092 12.2254C42.7914 12.7265 42.5909 13.1273 42.3904 13.5282C42.9917 13.8288 43.6933 14.1295 44.2946 14.4302C44.8959 13.8289 45.4972 13.0271 45.8981 12.2254H43.092V12.2254ZM48.1029 1.7025C47.5016 2.60446 46.9002 3.50638 46.3991 4.10769L45.1966 3.6066C45.6977 2.90507 46.1988 1.80268 46.5997 1.10115L48.1029 1.7025ZM55.2184 6.11204C54.8175 8.91814 54.2162 11.3234 53.214 13.2275C54.116 14.831 55.4188 16.1338 56.922 17.0358C56.5211 17.3365 56.0201 18.038 55.7195 18.4389C54.3164 17.5369 53.1138 16.3343 52.2118 14.831C51.1094 16.4345 49.7064 17.6371 47.8022 18.6393C47.6018 18.2384 47.1007 17.5369 46.9002 17.136C48.9046 16.234 50.4079 14.9312 51.41 13.1273C50.8087 11.7242 50.2074 10.221 49.9068 8.51729C49.6061 9.31904 49.1051 10.0206 48.7042 10.7221C48.4036 10.4214 47.8022 9.8201 47.4013 9.61967C48.9046 7.61531 49.8066 4.40836 50.2075 1.00096L51.8109 1.20141C51.6105 2.3038 51.4101 3.40619 51.2097 4.50858H56.5211V6.2123H55.2184V6.11204ZM50.9089 6.11204C51.2096 8.01618 51.7107 9.7199 52.4122 11.3234C53.0135 9.82011 53.4145 8.1164 53.6149 6.11204H50.9089Z" fill="white"/>
<path d="M62.3351 11.4236V16.4345C62.3351 17.3365 62.1347 17.8376 61.6336 18.038C61.1325 18.3386 60.3308 18.3386 59.1282 18.3386C59.1282 17.9378 58.8275 17.136 58.6271 16.6349C59.4288 16.6349 60.1303 16.6349 60.3307 16.6349C60.6314 16.6349 60.6314 16.5347 60.6314 16.3343V11.8245L58.5267 12.4258L58.126 10.7221C58.8275 10.5217 59.6292 10.3212 60.6314 10.0206V6.11204H58.4266V4.40839H60.6314V0.700317H62.2349V4.40839H64.3394V6.11204H62.2349V9.51947L64.139 9.01838L64.4396 10.6218L62.3351 11.4236ZM71.956 10.3212V12.526H75.5638V18.6393H73.9603V18.038H68.5485V18.7395H66.9451V12.6262H70.2523V10.4215H66.8449C66.6444 13.2276 66.0431 16.4345 64.5398 18.7395C64.2392 18.4389 63.4374 17.8376 63.0366 17.7373C65.0409 14.831 65.2414 10.6218 65.2414 7.61531V1.80269H75.5638V7.01403H72.0562V8.91819H76.1652V10.4215H71.956V10.3212ZM70.2523 8.81794V6.91383H66.8449V7.51512C66.8449 7.91599 66.8449 8.4171 66.8449 8.91819H70.2523V8.81794ZM66.8449 3.20576V5.31031H73.6597V3.20576H66.8449ZM73.8601 14.0293H68.4483V16.5347H73.8601V14.0293Z" fill="white"/>
<path d="M91.0757 13.7287C91.7773 14.7308 92.5791 16.0337 92.8797 16.9356L91.5768 17.7374C91.2762 16.9356 90.5747 15.5326 89.9734 14.5304C89.4723 16.0337 88.6705 17.3365 87.1672 18.4389C86.9668 18.1383 86.4657 17.6371 86.165 17.3365C88.8709 15.5326 89.0714 12.1252 89.0714 9.92039V4.70906H90.4745V9.92039C90.4745 11.2232 90.3742 12.8267 89.9734 14.3299L91.0757 13.7287ZM88.1694 13.428H86.8666V1.90297H92.6792V13.428H91.3764V3.50643H88.1694V13.428ZM99.7946 15.1317L99.895 16.5347C97.4897 17.0358 94.9842 17.5369 93.0801 18.038L92.7794 16.4346L93.7816 16.2341V8.71777H95.1846V16.0337L96.3873 15.8332V7.61534H97.7903V10.5217H99.3939V12.0249H97.7903V15.5326L99.7946 15.1317ZM100.997 6.91386C101.298 12.6263 101.899 17.0358 102.601 17.0358C102.801 17.0358 102.901 15.9334 103.002 13.8289C103.302 14.2297 103.803 14.5304 104.204 14.7308C104.004 17.7374 103.603 18.6393 102.3 18.6393C100.396 18.6393 99.6945 13.3278 99.3939 6.91386H93.0801V5.41059H99.3939C99.3939 3.90733 99.2935 2.40402 99.2935 0.800537H100.897C100.897 2.3038 100.897 3.90733 100.897 5.41059H103.904V6.91386H100.997V6.91386ZM98.7925 3.70688H93.9821V2.20361H98.7925V3.70688ZM102.701 4.50861C102.4 3.80708 101.799 2.60446 101.198 1.80272L102.4 1.30163C103.002 2.10337 103.703 3.2058 104.004 3.90733L102.701 4.50861Z" fill="white"/>
<path d="M112.322 2.00304C113.224 3.30587 114.326 5.00959 114.627 6.2122L113.024 6.91374C112.923 6.61308 112.823 6.31243 112.623 5.91156C107.612 6.31243 106.91 6.4126 106.509 6.61304C106.409 6.21216 106.109 5.41047 105.908 4.90938C106.209 4.80916 106.509 4.60868 106.81 4.10759C107.111 3.70672 108.113 2.30368 108.714 0.800415L110.618 1.3015C110.017 2.50412 109.215 3.70676 108.414 4.70893L112.021 4.50849C111.621 3.80696 111.22 3.20563 110.819 2.60432L112.322 2.00304ZM113.825 16.6348C113.825 17.5368 113.625 17.9377 113.124 18.2383C112.523 18.539 111.621 18.539 110.518 18.539C110.418 18.0379 110.218 17.3364 109.917 16.9355C110.719 16.9355 111.52 16.9355 111.821 16.9355C112.122 16.9355 112.122 16.8353 112.122 16.6348V14.8309H108.514V18.6392H106.81V7.71547H113.825V16.6348V16.6348ZM108.414 9.21874V10.6217H112.021V9.21874H108.414ZM112.021 13.4279V11.9246H108.414V13.4279H112.021ZM117.934 9.31893C115.93 9.31893 115.429 8.81785 115.429 7.01393V0.90067H117.233V3.9072C118.736 3.40611 120.239 2.70458 121.342 2.20349L122.544 3.50631C121.041 4.20783 119.137 4.90938 117.333 5.41047V7.01393C117.333 7.61524 117.433 7.71547 118.235 7.71547H120.941C121.642 7.71547 121.743 7.41478 121.843 5.61086C122.244 5.91151 122.945 6.21218 123.446 6.31239C123.246 8.71762 122.745 9.31893 121.141 9.31893H117.934ZM120.941 16.9355C121.642 16.9355 121.843 16.5346 121.943 14.5303C122.344 14.8309 123.045 15.1316 123.547 15.2318C123.346 17.8375 122.845 18.539 121.141 18.539H118.035C116.03 18.539 115.429 18.0379 115.429 16.234V9.92027H117.233V12.8266C118.836 12.2252 120.44 11.5237 121.442 10.8222L122.645 12.125C121.141 13.027 119.137 13.6283 117.233 14.2296V16.1337C117.233 16.735 117.433 16.9355 118.235 16.9355H120.941Z" fill="white"/>
<path d="M140.382 11.1228C139.38 13.027 137.777 14.4301 135.772 15.5325C137.777 16.3342 140.182 16.8353 142.688 17.0357C142.287 17.4366 141.886 18.1381 141.685 18.6392C138.779 18.2383 136.073 17.637 133.868 16.5346C131.463 17.5368 128.857 18.2383 126.051 18.6392C125.851 18.1381 125.45 17.4366 125.149 17.0357C127.555 16.7351 129.96 16.234 132.064 15.5325C130.561 14.6305 129.258 13.4279 128.256 12.0248H126.753V10.4214H138.879L139.18 10.3211L140.382 11.1228ZM130.762 4.30805H125.651V2.70459H133.367C133.167 2.2035 132.766 1.50196 132.465 1.00087L134.269 0.599976C134.67 1.20128 135.171 2.10328 135.472 2.70459H142.287V4.30805H137.075V9.92028H135.271V4.30805H132.566V9.92028H130.762V4.30805ZM129.96 5.41048C129.359 6.91375 128.256 8.41701 127.154 9.41919C126.853 9.11854 126.152 8.71767 125.751 8.41701C126.753 7.51505 127.755 6.21222 128.356 4.90939L129.96 5.41048ZM130.26 12.0248C131.162 13.1272 132.465 14.0292 133.868 14.8309C135.372 14.1294 136.574 13.2274 137.576 12.0248H130.26ZM138.779 5.00958C139.982 6.01176 141.385 7.51505 142.086 8.41701L140.683 9.31894C139.982 8.31676 138.579 6.81349 137.476 5.81131L138.779 5.00958Z" fill="white"/>
<path d="M162.03 15.733H154.213V18.6393H152.309V15.733H144.592V14.0293H152.309V12.6262H146.696V7.81576H152.309V6.61313H148.801V3.80704H144.892V2.30378H148.801V0.700317H150.605V2.30378H155.916V0.700317H157.82V2.30378H161.729V3.80704H157.82V6.61313H154.213V7.81576H160.025V12.6262H154.213V14.0293H162.03V15.733ZM152.409 11.2232V9.21883H148.601V11.2232H152.409ZM150.605 5.31031H155.916V3.9073H150.605V5.31031ZM154.213 9.21883V11.2232H158.021V9.21883H154.213Z" fill="white"/>
</svg>
